<svg width="35" height="34" viewBox="0 0 35 34" fill="none" xmlns="http://www.w3.org/2000/svg">
<path d="M17.5002 3.66667C19.0473 3.66667 20.531 4.26369 21.625 5.32639C22.7189 6.3891 23.3335 7.83044 23.3335 9.33333C23.3335 10.8362 22.7189 12.2776 21.625 13.3403C20.531 14.403 19.0471 15 17.5 15C15.9529 15 14.4693 14.403 13.3754 13.3403C12.2814 12.2776 11.6668 10.8362 11.6668 9.33333C11.6668 7.83044 12.2814 6.3891 13.3754 5.32639C14.4693 4.26369 15.9531 3.66667 17.5002 3.66667ZM17.5002 19.8333C23.946 19.8333 29.1668 22.3691 29.1668 25.4999V29.9998H5.8335V25.4999C5.8335 22.3691 11.0543 19.8333 17.5002 19.8333Z" stroke="currentColor" stroke-width="4" stroke-linejoin="round"/>
</svg>
